Simulation
nRows=44
nColumns=15
endheader
time  TH_x TH_y TH_z SC_y  SC_z  SC_x  AC_y  AC_z  AC_x  GH_y  GH_z  GH_yy  EL_x  PS_y
8.6175  0.000000  0.000000  0.000000  -34.97642903186877  2.696573001384966  -6.939993175236098  41.384390455610344  12.585073258727084  3.911873103057019  110.24909416716429  4.958451041120205  -95.15073715672312  20.585793736292935  120.000000
8.67495  0.000000  0.000000  0.000000  -34.567351921332616  2.505292120942182  -7.287448381824578  40.87027675373331  12.50379468016823  3.5295793992813165  100.73377478127908  5.493070285421971  -85.665106246801  20.5169410021156  120.000000
8.7324  0.000000  0.000000  0.000000  -34.15845808344626  2.2443077837896115  -7.712570693226676  40.399054177625985  12.511884737887236  3.172743497467424  92.24409092979838  6.595669143262596  -77.03140079852824  20.616599358338902  120.000000
8.78985  0.000000  0.000000  0.000000  -33.79395655321839  1.9489307097456292  -8.171966481705889  40.00083990554394  12.608080621001108  2.8682003195903873  86.29593646671275  8.34170695265143  -70.82324589900584  20.8693455948397  120.000000
8.8473  0.000000  0.000000  0.000000  -33.506108273323925  1.687785882051286  -8.62185698668748  39.70126751415775  12.795607225798202  2.6479690920570236  82.97050498991389  10.738052006220066  -67.22573630848228  21.219838015499967  120.000000
8.90475  0.000000  0.000000  0.000000  -33.306620172820786  1.5405745019104466  -9.01339284308898  39.50411568229881  13.077982872716136  2.5580110913547296  81.6268095486356  13.720794108124737  -65.71708088980789  21.59603321211454  120.000000
8.9622  0.000000  0.000000  0.000000  -33.19343729849913  1.576202338984177  -9.291117468587844  39.39023622410086  13.458662883028337  2.6520123309586525  81.55545453257375  17.158002402937086  -65.69486389545573  21.93122391045317  120.000000
9.01965  0.000000  0.000000  0.000000  -33.16020656523326  1.8583594040298665  -9.394433061234  39.33591025285335  13.932282564420637  2.9856425507531745  82.23054435180651  20.884949394921207  -66.70587634318754  22.184578404205855  120.000000
9.0771  0.000000  0.000000  0.000000  -33.21258024642849  2.439586533393016  -9.259545674679455  39.33579642368225  14.476652878639408  3.6026995770184733  83.28597340208901  24.7537077486959  -68.42149635324199  22.344170917498126  120.000000
9.13455  0.000000  0.000000  0.000000  -33.37637529306291  3.3475610984266733  -8.822601965464978  39.408519717363504  15.054142867845838  4.5166788225856855  84.45110781560734  28.651885209361403  -70.5812233172304  22.41398780029238  120.000000
9.192  0.000000  0.000000  0.000000  -33.68895044440294  4.582240179401368  -8.022657707072973  39.587747306329035  15.612969489209126  5.710593747780714  85.52966511356054  32.49878960453058  -72.97407450386694  22.399174068356526  120.000000
9.24945  0.000000  0.000000  0.000000  -34.186617918282444  6.118181261269223  -6.802999843129224  39.92315107053777  16.099791989502844  7.137927112881681  86.3783232097861  36.2392703871854  -75.42204801493591  22.29820804687229  120.000000
9.3069  0.000000  0.000000  0.000000  -34.896228804460414  7.909484154594571  -5.112964405504712  40.473061388164936  16.47366575441989  8.728145562145825  86.89631549563845  39.8311206203314  -77.77430665384624  22.102016886603245  120.000000
9.36435  0.000000  0.000000  0.000000  -35.84572926366088  9.883925703374954  -2.908220912436928  41.26534117107842  16.702602054579607  10.411954447319161  87.0326675619004  43.22860554142907  -79.91476242550017  21.79962523129835  120.000000
9.421800000000001  0.000000  0.000000  0.000000  -37.06895415122951  11.937886979658911  -0.1612040591567873  42.27830805207191  16.760568464941905  12.135496196176542  86.78951888999526  46.380312803867355  -81.76852974364608  21.391084882918147  120.000000
9.47925  0.000000  0.000000  0.000000  -38.590797874238206  13.945197471432952  3.1153643151022408  43.46229417361549  16.63755552496076  13.851636905333455  86.20851516807127  49.2450343817843  -83.30019822318353  20.898027657248228  120.000000
9.5367  0.000000  0.000000  0.000000  -40.40511392749873  15.77853135428991  6.847296728668597  44.75841729549473  16.34979688666166  15.508712466492852  85.35185645904711  51.797634991812316  -84.50404128749483  20.359932194723687  120.000000
9.59415  0.000000  0.000000  0.000000  -42.46599837144849  17.323215392240467  10.892358251727117  46.099579783838365  15.93426746939906  17.049833491877735  84.28722183157261  54.02584590863684  -85.38971286889117  19.82284532405088  120.000000
9.6516  0.000000  0.000000  0.000000  -44.67173744768371  18.49667988559912  15.047747764460983  47.41297042325676  15.43510242449555  18.418951374488177  83.08461706673272  55.92578094226871  -85.9718590601907  19.328332061648023  120.000000
9.70905  0.000000  0.000000  0.000000  -46.86794661617213  19.273725294540565  19.074358678535297  48.63029170036689  14.893911141736657  19.564185236026173  81.82255503563486  57.49971209961538  -86.26765912979606  18.906462829304022  120.000000
9.7665  0.000000  0.000000  0.000000  -48.87493284714446  19.69026717809102  22.73072902465332  49.693546730805515  14.344480236847954  20.44049315181661  80.588947462528  58.75214728550219  -86.30048025037694  18.576503820240674  120.000000
9.82395  0.000000  0.000000  0.000000  -50.52277219871557  19.829031642479038  25.803934509169455  50.557680846459654  13.810650563468553  21.011960563545852  79.47503277992776  59.68708481052073  -86.1064378425902  18.34842048058662  120.000000
9.8814  0.000000  0.000000  0.000000  -51.67853815403817  19.793526846296526  28.12855270173863  51.19155380969035  13.310948343195468  21.2517436367676  78.56091683561246  60.307231474412866  -85.73401943332782  18.223784967946894  120.000000
9.93885  0.000000  0.000000  0.000000  -52.25530463825423  19.6773451701265  29.590756562094313  51.58015638068129  12.862396167513221  21.14826452280337  77.90469890204176  60.6176399057499  -85.23909939029028  18.193554218390684  120.000000
9.9963  0.000000  0.000000  0.000000  -52.208280266424666  19.538411458395515  30.119182293949784  51.72554321263305  12.483103151819098  20.712602411415837  77.53541571255082  60.62774169243811  -84.67439424688266  18.239430401689305  120.000000
10.05375  0.000000  0.000000  0.000000  -51.53630039661841  19.39088055280094  29.67871570856485  51.639965044864645  12.194111410051674  19.975074148971714  77.44715366837104  60.34642747136002  -84.07436645646659  18.334028773089006  120.000000
10.1112  0.000000  0.000000  0.000000  -50.28562405045846  19.19976325544415  28.273960682055694  51.33735510184875  12.016273404281364  18.979511709158846  77.60142052135609  59.780272996925525  -83.43965481922255  18.446665111574546  120.000000
10.16865  0.000000  0.000000  0.000000  -48.55476508266679  18.888521961355885  25.962851452868968  50.829950203805424  11.971034424741953  17.78105345242562  77.93352699458762  58.933985153994065  -82.72384140328991  18.547957207848306  120.000000
10.2261  0.000000  0.000000  0.000000  -46.49048083705321  18.358303597585206  22.86709042511423  50.131529043297704  12.078953264105019  16.449432933814307  78.36220277408273  57.81371565285214  -81.83560906560936  18.614247847453537  120.000000
10.28355  0.000000  0.000000  0.000000  -44.271222312738516  17.52004162097989  19.164135122993567  49.265975814380845  12.357133441883674  15.071552100457376  78.79876249937648  56.430708127316834  -80.65883893378899  18.633249317225943  120.000000
10.341000000000001  0.000000  0.000000  0.000000  -42.08213751763105  16.332648537250364  15.059030972533451  48.267783876848355  12.813968943724426  13.741411033140052  79.15044277511737  54.79735267528652  -79.08343508598148  18.608116672698905  120.000000
10.39845  0.000000  0.000000  0.000000  -40.08095152939957  14.81920635508687  10.7468476466725  47.1782559906718  13.440082676076324  12.546170942376445  79.32925281951485  52.924949939082246  -77.03401149564337  18.568539973138325  120.000000
10.4559  0.000000  0.000000  0.000000  -38.36832535803987  13.05678134712319  6.384800596098492  46.03707426371647  14.200224384297822  11.559678747448583  79.26296932723415  50.82251805557942  -74.48763043245833  18.575652840525237  120.000000
10.51335  0.000000  0.000000  0.000000  -36.98606713747953  11.151834424658249  2.0869742477098643  44.87156917600599  15.040648672313983  10.834464463508173  78.89399335453659  48.496058086015715  -71.46761736715933  18.709859820118307  120.000000
10.5708  0.000000  0.000000  0.000000  -35.931865023255554  9.221898553205754  -2.065696926129757  43.69847308687276  15.907783353421394  10.393495525786491  78.17610740153147  45.95452985130407  -68.0300503228524  19.04365620779965  120.000000
10.62825  0.000000  0.000000  0.000000  -35.17165141506112  7.374627531927884  -6.010278140107679  42.53233284093034  16.76295517339955  10.231533506758275  77.07899710353172  43.214123190913156  -64.2526056584151  19.608319578495774  120.000000
10.6857  0.000000  0.000000  0.000000  -34.65334188024517  5.698121634596366  -9.69078271354412  41.39519839274948  17.58613629097902  10.321852480885175  75.59794165303178  40.30050139677043  -60.23132309233918  20.37226904339249  120.000000
10.74315  0.000000  0.000000  0.000000  -34.308878887011176  4.2532102705984896  -13.055437576253052  40.33060928192884  18.378186791419537  10.61826004901082  73.76287484220043  37.2490072705754  -56.07839974808462  21.249938237489026  120.000000
10.8006  0.000000  0.000000  0.000000  -34.06600118374484  3.0596307977731443  -16.055228318241472  39.38891651411076  19.145136615685086  11.07289541378904  71.65051290208825  34.092532690379855  -51.923794179643096  22.132435750749135  120.000000
10.85805  0.000000  0.000000  0.000000  -33.878344615678714  2.0905311612291846  -18.64275449555675  38.592231942241156  19.881086498932092  11.656868242346652  69.37339036975416  30.849070951792037  -47.90082700272144  22.91646518248062  120.000000
10.9155  0.000000  0.000000  0.000000  -33.73798781655962  1.3019680162517002  -20.778382802718507  37.93040046551122  20.572118468070602  12.353491970260167  67.05279440229204  27.532066651840218  -44.126753199350894  23.525924707942018  120.000000
10.97295  0.000000  0.000000  0.000000  -33.65043131045459  0.6754853017254138  -22.444977444988247  37.40173743746077  21.227248391285165  13.119839035563233  64.78774654632615  24.175275659049216  -40.6841319439928  23.91208102000948  120.000000
11.0304  0.000000  0.000000  0.000000  -33.64584885084599  0.21827632832465121  -23.649035502871342  37.01682130445925  21.886307746410612  13.882843625758166  62.641341901567245  20.84986196479182  -37.6206222408266  24.042659171099746  120.000000
11.08785  0.000000  0.000000  0.000000  -33.77209587738168  -0.05789764397391364  -24.413406238479414  36.770177516351225  22.589073615699043  14.58123513943941  60.71023668542815  17.645732720203736  -34.9970277334084  23.893581332414975  120.000000
